<svg xmlns="http://www.w3.org/2000/svg" viewBox="0.00 0.00 630.57 156.33" fill="none" role="img">
<path d="M0 0H46.93C58.7549 0 68.6706 4.00321 76.677 12.0096C84.6834 20.0161 88.6866 29.8701 88.6866 41.5719C88.6866 53.2736 84.6834 63.1276 76.677 71.1341C68.6706 79.1405 58.7549 83.1437 46.93 83.1437H17.183V129.335H0V0ZM17.183 67.0693H46.93C54.1974 67.0693 60.1098 64.6673 64.6673 59.8635C69.348 54.8133 71.6884 48.7161 71.6884 41.5719C71.6884 34.1813 69.348 28.0841 64.6673 23.2803C59.9867 18.4764 54.0742 16.0745 46.93 16.0745H17.183V67.0693Z" fill="white"/>
<path d="M176.774 52.8425V36.9528H192.849V129.335H176.774V113.445C168.891 125.639 157.251 131.737 141.854 131.737C128.797 131.737 117.773 127.056 108.781 117.695C99.6661 108.21 95.1086 96.6931 95.1086 83.1437C95.1086 69.7176 99.6661 58.2622 108.781 48.7777C117.896 39.2931 128.92 34.5508 141.854 34.5508C157.251 34.5508 168.891 40.648 176.774 52.8425ZM143.886 116.216C153.248 116.216 161.069 113.075 167.351 106.794C173.633 100.265 176.774 92.3819 176.774 83.1437C176.774 73.7824 173.633 65.9607 167.351 59.6787C161.069 53.2736 153.248 50.071 143.886 50.071C134.648 50.071 126.888 53.2736 120.606 59.6787C114.324 65.9607 111.183 73.7824 111.183 83.1437C111.183 92.3819 114.324 100.265 120.606 106.794C126.888 113.075 134.648 116.216 143.886 116.216Z" fill="white"/>
<path d="M280.946 85.9152V36.9528H297.021V129.335H280.946V116.032C274.541 126.502 264.564 131.737 251.015 131.737C240.175 131.737 231.491 128.349 224.963 121.575C218.435 114.677 215.17 105.377 215.17 93.6753V36.9528H231.245V92.7514C231.245 100.142 233.277 105.931 237.342 110.119C241.407 114.307 247.011 116.401 254.156 116.401C262.408 116.401 268.937 113.876 273.741 108.826C278.544 103.653 280.946 96.0156 280.946 85.9152Z" fill="white"/>
<path d="M335.17 61.8959C335.17 67.8083 341.267 72.4274 353.462 75.7532C358.019 76.7386 361.838 77.7856 364.917 78.8942C368.12 79.8796 371.569 81.4193 375.264 83.5133C379.082 85.6072 381.977 88.3787 383.948 91.8276C385.919 95.2765 386.904 99.3414 386.904 104.022C386.904 112.398 383.64 119.111 377.112 124.161C370.583 129.212 362.331 131.737 352.353 131.737C343.485 131.737 335.786 129.827 329.258 126.009C322.853 122.067 318.295 116.771 315.585 110.119L329.443 102.174C330.921 106.609 333.692 110.119 337.757 112.706C341.822 115.293 346.687 116.586 352.353 116.586C357.896 116.586 362.331 115.539 365.656 113.445C368.982 111.351 370.645 108.21 370.645 104.022C370.645 97.7401 364.548 93.1826 352.353 90.3495C348.288 89.2409 345.209 88.3787 343.115 87.7628C341.021 87.1469 338.126 86.0384 334.431 84.4371C330.859 82.8358 328.149 81.1729 326.302 79.4485C324.454 77.6008 322.729 75.1989 321.128 72.2427C319.65 69.1633 318.911 65.7759 318.911 62.0807C318.911 54.0742 321.99 47.4843 328.149 42.3109C334.431 37.1375 342.253 34.5508 351.614 34.5508C359.128 34.5508 365.779 36.2753 371.569 39.7242C377.481 43.05 381.915 47.7307 384.872 53.7663L371.384 61.3416C368.058 53.4583 361.468 49.5167 351.614 49.5167C346.934 49.5167 342.992 50.6253 339.789 52.8425C336.71 55.0596 335.17 58.0774 335.17 61.8959Z" fill="white"/>
<path d="M492.097 90.5343H414.681C416.282 98.6639 420.039 105.069 425.951 109.75C431.864 114.307 439.254 116.586 448.123 116.586C460.317 116.586 469.186 112.09 474.729 103.098L488.402 110.858C479.287 124.777 465.737 131.737 447.753 131.737C433.219 131.737 421.271 127.179 411.909 118.064C402.794 108.703 398.237 97.0626 398.237 83.1437C398.237 69.1017 402.733 57.5231 411.725 48.4081C420.716 39.1699 432.356 34.5508 446.645 34.5508C460.194 34.5508 471.218 39.3547 479.718 48.9624C488.34 58.3238 492.651 69.7791 492.651 83.3285C492.651 85.6688 492.466 88.0708 492.097 90.5343ZM446.645 49.7015C438.146 49.7015 431.002 52.1034 425.212 56.9073C419.546 61.7111 416.036 68.2394 414.681 76.4922H476.392C475.037 67.9931 471.65 61.4032 466.23 56.7225C460.81 52.0418 454.282 49.7015 446.645 49.7015Z" fill="white"/>
<path d="M606.313 36.9528V52.4729H581.739V102.544C581.739 107.101 582.601 110.366 584.326 112.336C586.173 114.184 588.945 115.169 592.64 115.293C596.335 115.293 600.893 115.169 606.313 114.923V129.335C592.147 131.182 581.801 130.012 575.272 125.824C568.867 121.636 565.665 113.876 565.665 102.544V52.4729H547.373V36.9528H565.665V15.8897L581.739 11.0858V36.9528H606.313Z" fill="white"/>
<path d="M516.239 77.8648C514.335 77.8648 512.792 76.683 512.792 75.2253V0H529.684V75.2253C529.684 76.683 528.658 77.8648 526.754 77.8648H516.239Z" fill="white"/>
<path d="M516.323 91.722C514.421 91.722 512.878 92.901 512.875 94.357L512.792 131.974L529.684 132.08V94.357C529.681 92.9009 528.578 91.722 526.676 91.722H516.323Z" fill="white"/>
<path d="M48.436 0C60.5043 7.07845e-05 70.6241 4.08567 78.7954 12.2568C86.9668 20.4283 91.0532 30.4858 91.0532 42.4287C91.0532 54.3715 86.9668 64.4282 78.7954 72.5996C70.6241 80.771 60.5045 84.8574 48.436 84.8574H18.0757V132H0.538574V0H48.436ZM32.0737 20.8779C28.547 20.878 25.688 23.737 25.688 27.2637V57.5947C25.688 61.1214 28.547 63.9804 32.0737 63.9805C35.6005 63.9805 38.4595 61.1215 38.4595 57.5947V27.2637C38.4595 23.7369 35.6005 20.8779 32.0737 20.8779ZM54.4224 20.8779C50.8957 20.878 48.0366 23.737 48.0366 27.2637V57.5947C48.0366 61.1214 50.8957 63.9804 54.4224 63.9805C57.9491 63.9805 60.8081 61.1215 60.8081 57.5947V27.2637C60.8081 23.7369 57.9491 20.8779 54.4224 20.8779Z" fill="white"/>
</svg>
